<mxfile host="app.diagrams.net" modified="2021-10-27T10:58:02.883Z" agent="5.0 (Macintosh; Intel Mac OS X 10_15_7) AppleWebKit/537.36 (KHTML, like Gecko) Chrome/94.0.4606.81 Safari/537.36" etag="2xMJllorTxPurbWvl88d" version="15.5.9" type="github">
  <diagram id="Q5idEtfd2CSrGe0rKSaY" name="Page-1">
    <mxGraphModel dx="2053" dy="680" grid="1" gridSize="10" guides="1" tooltips="1" connect="1" arrows="1" fold="1" page="1" pageScale="1" pageWidth="827" pageHeight="1169" math="0" shadow="0">
      <root>
        <mxCell id="0" />
        <mxCell id="1" parent="0" />
        <mxCell id="paQy9W1iP2ziWrlLLvNn-68" style="edgeStyle=orthogonalEdgeStyle;rounded=0;orthogonalLoop=1;jettySize=auto;html=1;entryX=0;entryY=0.5;entryDx=0;entryDy=0;" edge="1" parent="1" source="paQy9W1iP2ziWrlLLvNn-58" target="paQy9W1iP2ziWrlLLvNn-47">
          <mxGeometry relative="1" as="geometry" />
        </mxCell>
        <mxCell id="paQy9W1iP2ziWrlLLvNn-58" value="" style="rounded=1;whiteSpace=wrap;html=1;" vertex="1" parent="1">
          <mxGeometry x="370" y="460" width="170" height="160" as="geometry" />
        </mxCell>
        <mxCell id="paQy9W1iP2ziWrlLLvNn-51" style="edgeStyle=orthogonalEdgeStyle;rounded=0;orthogonalLoop=1;jettySize=auto;html=1;entryX=0;entryY=0.5;entryDx=0;entryDy=0;" edge="1" parent="1" source="paQy9W1iP2ziWrlLLvNn-15" target="paQy9W1iP2ziWrlLLvNn-39">
          <mxGeometry relative="1" as="geometry" />
        </mxCell>
        <mxCell id="paQy9W1iP2ziWrlLLvNn-15" value="Creator-Front-API" style="rounded=1;whiteSpace=wrap;html=1;fillColor=#cdeb8b;strokeColor=#36393d;" vertex="1" parent="1">
          <mxGeometry x="-180" y="380" width="120" height="40" as="geometry" />
        </mxCell>
        <mxCell id="paQy9W1iP2ziWrlLLvNn-21" style="edgeStyle=orthogonalEdgeStyle;rounded=0;orthogonalLoop=1;jettySize=auto;html=1;exitX=0.5;exitY=1;exitDx=0;exitDy=0;" edge="1" parent="1">
          <mxGeometry relative="1" as="geometry">
            <mxPoint x="250" y="330" as="sourcePoint" />
            <mxPoint x="250" y="330" as="targetPoint" />
          </mxGeometry>
        </mxCell>
        <mxCell id="paQy9W1iP2ziWrlLLvNn-64" value="" style="edgeStyle=orthogonalEdgeStyle;rounded=0;orthogonalLoop=1;jettySize=auto;html=1;" edge="1" parent="1" source="paQy9W1iP2ziWrlLLvNn-24" target="paQy9W1iP2ziWrlLLvNn-59">
          <mxGeometry relative="1" as="geometry" />
        </mxCell>
        <mxCell id="paQy9W1iP2ziWrlLLvNn-24" value="查询loadCache" style="rounded=1;whiteSpace=wrap;html=1;fillColor=#fad9d5;strokeColor=#ae4132;" vertex="1" parent="1">
          <mxGeometry x="385" y="470" width="140" height="40" as="geometry" />
        </mxCell>
        <mxCell id="paQy9W1iP2ziWrlLLvNn-43" style="edgeStyle=orthogonalEdgeStyle;rounded=0;orthogonalLoop=1;jettySize=auto;html=1;entryX=0;entryY=0.5;entryDx=0;entryDy=0;" edge="1" parent="1" source="paQy9W1iP2ziWrlLLvNn-34" target="paQy9W1iP2ziWrlLLvNn-38">
          <mxGeometry relative="1" as="geometry" />
        </mxCell>
        <mxCell id="paQy9W1iP2ziWrlLLvNn-54" style="edgeStyle=orthogonalEdgeStyle;rounded=0;orthogonalLoop=1;jettySize=auto;html=1;entryX=1;entryY=0.5;entryDx=0;entryDy=0;" edge="1" parent="1" source="paQy9W1iP2ziWrlLLvNn-34" target="paQy9W1iP2ziWrlLLvNn-52">
          <mxGeometry relative="1" as="geometry">
            <Array as="points">
              <mxPoint x="250" y="510" />
            </Array>
          </mxGeometry>
        </mxCell>
        <mxCell id="paQy9W1iP2ziWrlLLvNn-34" value="DB" style="shape=cylinder3;whiteSpace=wrap;html=1;boundedLbl=1;backgroundOutline=1;size=15;fillColor=#1ba1e2;fontColor=#ffffff;strokeColor=#006EAF;" vertex="1" parent="1">
          <mxGeometry x="220" y="370" width="60" height="60" as="geometry" />
        </mxCell>
        <mxCell id="paQy9W1iP2ziWrlLLvNn-36" value="AdCube" style="shape=cylinder3;whiteSpace=wrap;html=1;boundedLbl=1;backgroundOutline=1;size=15;fillColor=#1ba1e2;fontColor=#ffffff;strokeColor=#006EAF;" vertex="1" parent="1">
          <mxGeometry x="170" y="545" width="60" height="60" as="geometry" />
        </mxCell>
        <mxCell id="paQy9W1iP2ziWrlLLvNn-37" style="edgeStyle=orthogonalEdgeStyle;rounded=0;orthogonalLoop=1;jettySize=auto;html=1;exitX=0.5;exitY=1;exitDx=0;exitDy=0;exitPerimeter=0;" edge="1" parent="1" source="paQy9W1iP2ziWrlLLvNn-34" target="paQy9W1iP2ziWrlLLvNn-34">
          <mxGeometry relative="1" as="geometry" />
        </mxCell>
        <mxCell id="paQy9W1iP2ziWrlLLvNn-49" style="edgeStyle=orthogonalEdgeStyle;rounded=0;orthogonalLoop=1;jettySize=auto;html=1;entryX=0;entryY=0.5;entryDx=0;entryDy=0;" edge="1" parent="1" source="paQy9W1iP2ziWrlLLvNn-38" target="paQy9W1iP2ziWrlLLvNn-45">
          <mxGeometry relative="1" as="geometry" />
        </mxCell>
        <mxCell id="paQy9W1iP2ziWrlLLvNn-38" value="plc-photo-task" style="rounded=1;whiteSpace=wrap;html=1;fillColor=#d5e8d4;gradientColor=#97d077;strokeColor=#82b366;" vertex="1" parent="1">
          <mxGeometry x="380" y="380" width="140" height="40" as="geometry" />
        </mxCell>
        <mxCell id="paQy9W1iP2ziWrlLLvNn-50" style="edgeStyle=orthogonalEdgeStyle;rounded=0;orthogonalLoop=1;jettySize=auto;html=1;entryX=0;entryY=0.5;entryDx=0;entryDy=0;entryPerimeter=0;" edge="1" parent="1" source="paQy9W1iP2ziWrlLLvNn-39" target="paQy9W1iP2ziWrlLLvNn-34">
          <mxGeometry relative="1" as="geometry" />
        </mxCell>
        <mxCell id="paQy9W1iP2ziWrlLLvNn-39" value="creator-api" style="rounded=1;whiteSpace=wrap;html=1;fillColor=#cce5ff;strokeColor=#36393d;" vertex="1" parent="1">
          <mxGeometry y="380" width="140" height="40" as="geometry" />
        </mxCell>
        <mxCell id="paQy9W1iP2ziWrlLLvNn-45" value="server 生产侧" style="rounded=1;whiteSpace=wrap;html=1;fillColor=#cdeb8b;strokeColor=#36393d;" vertex="1" parent="1">
          <mxGeometry x="690" y="380" width="120" height="40" as="geometry" />
        </mxCell>
        <mxCell id="paQy9W1iP2ziWrlLLvNn-47" value="server消费侧" style="rounded=1;whiteSpace=wrap;html=1;fillColor=#cce5ff;strokeColor=#36393d;" vertex="1" parent="1">
          <mxGeometry x="690" y="520" width="120" height="40" as="geometry" />
        </mxCell>
        <mxCell id="paQy9W1iP2ziWrlLLvNn-67" style="edgeStyle=orthogonalEdgeStyle;rounded=0;orthogonalLoop=1;jettySize=auto;html=1;entryX=0;entryY=0;entryDx=0;entryDy=37.5;entryPerimeter=0;" edge="1" parent="1" source="paQy9W1iP2ziWrlLLvNn-52" target="paQy9W1iP2ziWrlLLvNn-36">
          <mxGeometry relative="1" as="geometry">
            <Array as="points">
              <mxPoint x="50" y="583" />
            </Array>
          </mxGeometry>
        </mxCell>
        <mxCell id="paQy9W1iP2ziWrlLLvNn-52" value="das" style="rounded=1;whiteSpace=wrap;html=1;fillColor=#fad7ac;strokeColor=#b46504;" vertex="1" parent="1">
          <mxGeometry x="-10" y="490" width="120" height="40" as="geometry" />
        </mxCell>
        <mxCell id="paQy9W1iP2ziWrlLLvNn-55" value="创建订单" style="text;html=1;strokeColor=none;fillColor=none;align=center;verticalAlign=middle;whiteSpace=wrap;rounded=0;" vertex="1" parent="1">
          <mxGeometry x="150" y="360" width="60" height="30" as="geometry" />
        </mxCell>
        <mxCell id="paQy9W1iP2ziWrlLLvNn-56" value="binlog同步" style="text;html=1;strokeColor=none;fillColor=none;align=center;verticalAlign=middle;whiteSpace=wrap;rounded=0;" vertex="1" parent="1">
          <mxGeometry x="150" y="470" width="60" height="30" as="geometry" />
        </mxCell>
        <mxCell id="paQy9W1iP2ziWrlLLvNn-66" style="edgeStyle=orthogonalEdgeStyle;rounded=0;orthogonalLoop=1;jettySize=auto;html=1;entryX=1;entryY=0.5;entryDx=0;entryDy=0;entryPerimeter=0;" edge="1" parent="1" source="paQy9W1iP2ziWrlLLvNn-59" target="paQy9W1iP2ziWrlLLvNn-36">
          <mxGeometry relative="1" as="geometry" />
        </mxCell>
        <mxCell id="paQy9W1iP2ziWrlLLvNn-59" value="查询adCube" style="rounded=1;whiteSpace=wrap;html=1;fillColor=#d0cee2;strokeColor=#56517e;" vertex="1" parent="1">
          <mxGeometry x="385" y="555" width="140" height="40" as="geometry" />
        </mxCell>
        <mxCell id="paQy9W1iP2ziWrlLLvNn-63" style="edgeStyle=orthogonalEdgeStyle;rounded=0;orthogonalLoop=1;jettySize=auto;html=1;exitX=0.5;exitY=1;exitDx=0;exitDy=0;" edge="1" parent="1" source="paQy9W1iP2ziWrlLLvNn-58" target="paQy9W1iP2ziWrlLLvNn-58">
          <mxGeometry relative="1" as="geometry" />
        </mxCell>
        <mxCell id="paQy9W1iP2ziWrlLLvNn-65" value="plc样式服务" style="text;html=1;strokeColor=none;fillColor=none;align=center;verticalAlign=middle;whiteSpace=wrap;rounded=0;" vertex="1" parent="1">
          <mxGeometry x="465" y="515" width="75" height="30" as="geometry" />
        </mxCell>
        <mxCell id="paQy9W1iP2ziWrlLLvNn-71" value="获取订单视频信息" style="text;html=1;strokeColor=none;fillColor=none;align=center;verticalAlign=middle;whiteSpace=wrap;rounded=0;" vertex="1" parent="1">
          <mxGeometry x="280" y="545" width="60" height="30" as="geometry" />
        </mxCell>
        <mxCell id="paQy9W1iP2ziWrlLLvNn-72" value="视频打标/去标" style="text;html=1;strokeColor=none;fillColor=none;align=center;verticalAlign=middle;whiteSpace=wrap;rounded=0;" vertex="1" parent="1">
          <mxGeometry x="570" y="370" width="80" height="30" as="geometry" />
        </mxCell>
        <mxCell id="paQy9W1iP2ziWrlLLvNn-73" value="plc样式服务" style="text;html=1;strokeColor=none;fillColor=none;align=center;verticalAlign=middle;whiteSpace=wrap;rounded=0;" vertex="1" parent="1">
          <mxGeometry x="580" y="510" width="80" height="30" as="geometry" />
        </mxCell>
      </root>
    </mxGraphModel>
  </diagram>
</mxfile>
